<?xml version="1.0" encoding="UTF-8"?>
<svg version="1.1" viewBox="0 0 2048 1905" width="1280" height="1280" xmlns="http://www.w3.org/2000/svg">
<path transform="translate(0)" d="m0 0h2048v1905h-2048z" fill="#FDFEFD"/>
<path transform="translate(214,54)" d="m0 0h31l22 1h380l94-1h27l32 1 69 4 33 2 25 5 23 4 26 4 49 13 28 10 27 11 18 8 16 8 19 10 17 10 22 13 21 13 16 11 16 13 12 11 27 27 7 8 12 15 13 18 17 26 17 28 10 17 12 24 10 26 10 32 6 21 7 36 4 22 1 8 1 19v30l-1 42-1 22-3 18-5 21-6 18-11 30-11 27-10 21-12 22-14 25-9 16-7 11-13 17-9 11-13 15-7 7-4 5-8 7-49 49-7 8-16 17-9 10-8 8-9 11-12 15-8 11-8 9-21 27-12 14-11 14-12 17-10 14-10 15-11 16-13 20-12 25-5 15-4 20-1 10v44l3 20 7 20 8 16 6 10 11 14 23 23 11 9 13 10 13 8 22 12 23 10 17 5 19 5 16 4 34 3 64 4 37 1h201l53-1 15-2 3-2v-827l-1-54v-46l2-12 5-13 4-6 6-1h284l1 890v92l-1 240-1 36-3 1-48 2-48 1h-188l-163-1h-92l-107-1-27-2-55-8-31-4-20-4-32-8-57-18-24-9-25-12-18-10-24-14-22-13-19-12-15-11-11-9-14-12-8-7-15-14-18-18-9-11-11-15-12-20-22-33-9-15-13-24-11-28-8-25-12-41-8-31-3-20-2-27v-50l3-42 4-27 8-32 7-21 17-37 13-28 15-29 11-18 13-15 14-14 9-11 10-12 9-11 11-12 7-8 12-14 11-13 9-11 13-15 9-11 11-13 7-8 11-13 9-11 12-13 7-8 12-14 8-9 7-8 9-10 11-14 13-17 10-14 18-27 13-23 8-14 10-23 9-25 3-16v-42l-2-21-5-16-6-15-8-14-12-16-8-10-14-14-18-13-26-15-15-8-20-9-35-12-21-4-39-5-31-3-174-1h-125l-27 1-6 2-5 5-5 14-2 16 1 59 1 33v828l-3 5-4 2h-182l-87 1-16-2-5-3-2-8v-1227l1-13 5-5 11-4z" fill="#1E3C66"/>
<path transform="translate(265,1463)" d="m0 0h203l16 2 1 31v241l-2 13-3 3-12 2h-281l-1-1-1-20v-104l2-126 3-37 1-1 35-2z" fill="#018D4B"/>
<path transform="translate(1634,56)" d="m0 0h257l5 2 1 7 1 17 1 63v187l-2 5-8 5-15 3-36 2-26 1h-106l-63-2-4 1h-23l-10-3-4-5-1-4v-26l3-139v-20l-2-37-3-38v-11l9-4 17-3z" fill="#018D4B"/>
</svg>
