<?xml version="1.0" encoding="UTF-8" standalone="no" ?>
<!DOCTYPE svg PUBLIC "-//W3C//DTD SVG 1.1//EN" "http://www.w3.org/Graphics/SVG/1.1/DTD/svg11.dtd">
<svg xmlns="http://www.w3.org/2000/svg" xmlns:xlink="http://www.w3.org/1999/xlink" version="1.1" width="1080" height="1080" viewBox="0 0 1080 1080" xml:space="preserve">
<desc>Created with Fabric.js 5.2.4</desc>
<defs>
</defs>
<g transform="matrix(1 0 0 1 540 540)" id="6ebcb87b-82b6-4dfb-ab32-991663a45df1"  >
<rect style="stroke: none; stroke-width: 1; stroke-dasharray: none; stroke-linecap: butt; stroke-dashoffset: 0; stroke-linejoin: miter; stroke-miterlimit: 4; fill: rgb(255,255,255); fill-rule: nonzero; opacity: 1; visibility: hidden;" vector-effect="non-scaling-stroke"  x="-540" y="-540" rx="0" ry="0" width="1080" height="1080" />
</g>
<g transform="matrix(1 0 0 1 540 540)" id="d205b565-bfa9-4312-aa6d-420f81d5fb4d"  >
</g>
<g transform="matrix(1 0 0 1 540 540)" id="ed7e0ddf-480b-4035-b964-8eab666fe2c3"  >
<path style="stroke: rgb(0,0,0); stroke-width: 0; stroke-dasharray: none; stroke-linecap: butt; stroke-dashoffset: 0; stroke-linejoin: miter; stroke-miterlimit: 4; fill: rgb(255,255,255); fill-rule: nonzero; opacity: 1;" vector-effect="non-scaling-stroke"  transform=" translate(-12, -12)" d="M 14.095479 10.316482 L 22.286354 1 L 20.345636 1 L 13.230284 9.087682 L 7.551414 1 L 1 1 L 9.589488 13.231093 L 1 23 L 2.9407170000000002 23 L 10.450089 14.457139 L 16.448587 23 L 23 23 L 14.095479 10.316482 z M 11.436522 13.338465 L 10.564898 12.119760999999999 L 3.640586999999999 2.4316109999999984 L 6.621925999999999 2.4316109999999984 L 12.211706 10.253160999999999 L 13.079654999999999 11.471865 L 20.344715 21.638136 L 17.363376000000002 21.638136 L 11.436522 13.338465 z" stroke-linecap="round" />
</g>
</svg>