<svg xmlns="http://www.w3.org/2000/svg" xmlns:xlink="http://www.w3.org/1999/xlink" width="2560" zoomAndPan="magnify" viewBox="0 0 1920 1124.99995" height="1500" preserveAspectRatio="xMidYMid meet" version="1.0"><defs><clipPath id="42c689a249"><path d="M 0 244 L 1920 244 L 1920 1125 L 0 1125 Z M 0 244 " clip-rule="nonzero"/></clipPath><clipPath id="e737a331d0"><path d="M -1668.976562 24.457031 L 1229.371094 -2484.203125 L 3596.671875 250.828125 L 698.320312 2759.488281 Z M -1668.976562 24.457031 " clip-rule="nonzero"/></clipPath><clipPath id="52574ac14b"><path d="M 698.367188 2759.539062 L 3596.714844 250.882812 L 1229.417969 -2484.148438 L -1668.933594 24.507812 Z M 698.367188 2759.539062 " clip-rule="nonzero"/></clipPath><clipPath id="1ab554a521"><path d="M 0 24 L 1920 24 L 1920 1125 L 0 1125 Z M 0 24 " clip-rule="nonzero"/></clipPath><clipPath id="9063925c0d"><path d="M -1668.976562 24.457031 L 1229.371094 -2484.203125 L 3596.671875 250.828125 L 698.320312 2759.488281 Z M -1668.976562 24.457031 " clip-rule="nonzero"/></clipPath><clipPath id="39054b1977"><path d="M 698.367188 2759.539062 L 3596.714844 250.882812 L 1229.417969 -2484.148438 L -1668.933594 24.507812 Z M 698.367188 2759.539062 " clip-rule="nonzero"/></clipPath><clipPath id="903242b41c"><path d="M 0 24 L 1417 24 L 1417 1125 L 0 1125 Z M 0 24 " clip-rule="nonzero"/></clipPath><clipPath id="169bc7ac1f"><path d="M -1668.976562 24.457031 L 1229.371094 -2484.203125 L 3596.671875 250.828125 L 698.320312 2759.488281 Z M -1668.976562 24.457031 " clip-rule="nonzero"/></clipPath><clipPath id="11ccdee15f"><path d="M 698.367188 2759.539062 L 3596.714844 250.882812 L 1229.417969 -2484.148438 L -1668.933594 24.507812 Z M 698.367188 2759.539062 " clip-rule="nonzero"/></clipPath></defs><g clip-path="url(#42c689a249)"><g clip-path="url(#e737a331d0)"><g clip-path="url(#52574ac14b)"><path fill="#ffffff" d="M 3590.089844 244.402344 C 1209.582031 1768.113281 -255.199219 866.699219 -768.496094 735.933594 L 855.066406 2611.695312 Z M 3590.089844 244.402344 " fill-opacity="1" fill-rule="nonzero"/></g></g></g><g clip-path="url(#1ab554a521)"><g clip-path="url(#9063925c0d)"><g clip-path="url(#39054b1977)"><path fill="#ffffff" d="M -1668.605469 24.214844 C 468.8125 1873.550781 2047.703125 1191.464844 2574.460938 1135.691406 L 698.699219 2759.253906 Z M -1668.605469 24.214844 " fill-opacity="1" fill-rule="nonzero"/></g></g></g><g clip-path="url(#903242b41c)"><g clip-path="url(#169bc7ac1f)"><g clip-path="url(#11ccdee15f)"><path fill="#ffffff" d="M -1668.59375 24.226562 C 279.335938 2037.566406 1092.390625 2018.332031 1416.140625 2138.269531 L 698.699219 2759.253906 Z M -1668.59375 24.226562 " fill-opacity="1" fill-rule="nonzero"/></g></g></g></svg>